<svg width="24" height="24" viewBox="0 0 24 24" fill="none" xmlns="http://www.w3.org/2000/svg">
<path d="M12.0049 22.0026C6.48204 22.0026 2.00488 17.5255 2.00488 12.0026C2.00488 6.47984 6.48204 2.00269 12.0049 2.00269C17.5277 2.00269 22.0049 6.47984 22.0049 12.0026C22.0049 17.5255 17.5277 22.0026 12.0049 22.0026ZM12.0049 20.0026C16.4232 20.0026 20.0049 16.4209 20.0049 12.0026C20.0049 7.58441 16.4232 4.00269 12.0049 4.00269C7.5866 4.00269 4.00488 7.58441 4.00488 12.0026C4.00488 16.4209 7.5866 20.0026 12.0049 20.0026ZM9.00488 8.00269H15.0049L17.5049 11.5026L12.0041 17.0026L6.50488 11.5026L9.00488 8.00269ZM10.0349 10.0026L9.11488 11.2926L12.0041 14.1826L14.8949 11.2926L13.9749 10.0026H10.0349Z" fill="black"/>
</svg>
