<svg width="24" height="24" viewBox="0 0 24 24" fill="none" xmlns="http://www.w3.org/2000/svg">
<path d="M6 21.4999C4.067 21.4999 2.5 19.9329 2.5 17.9999C2.5 16.0669 4.067 14.4999 6 14.4999C7.5852 14.4999 8.92427 15.5538 9.35481 16.9991L15 16.9993V14.9999L17 14.9993V9.24332L14.757 6.99931H9V8.99996H3V2.99996H9V4.99932H14.757L18 1.75732L22.2426 5.99996L19 9.24132V14.9993L21 14.9999V20.9999H15V18.9993L9.35499 19.0002C8.92464 20.4458 7.58543 21.4999 6 21.4999ZM6 16.4999C5.17157 16.4999 4.5 17.1715 4.5 17.9999C4.5 18.8284 5.17157 19.4999 6 19.4999C6.82843 19.4999 7.5 18.8284 7.5 17.9999C7.5 17.1715 6.82843 16.4999 6 16.4999ZM19 16.9999H17V18.9999H19V16.9999ZM18 4.58574L16.5858 5.99996L18 7.41417L19.4142 5.99996L18 4.58574ZM7 4.99996H5V6.99996H7V4.99996Z" fill="black"/>
</svg>
